<svg width="322" height="381" viewBox="0 0 322 381" fill="none" xmlns="http://www.w3.org/2000/svg">
<path d="M0.0605472 21.7265C-0.166119 9.41984 11.4472 -0.126829 23.2339 0.0198379C77.4739 0.0465046 131.714 -0.0468285 185.954 0.0331715C189.914 -0.0468285 193.874 0.0198384 197.807 0.486505C198.541 16.0198 197.834 31.5665 197.834 47.0998C198.967 63.7932 196.434 80.5932 198.727 97.2198C201.567 107.42 208.887 116.847 218.994 120.633C222.554 122.047 226.194 123.513 230.047 123.807C260.341 124.047 290.647 123.567 320.941 124.06C321.434 201.953 320.914 279.86 321.194 357.767C321.274 364.46 318.647 371.58 313.087 375.593C308.687 378.687 303.447 380.807 298.007 380.713C206.861 380.673 115.727 380.673 24.5805 380.727C15.6739 380.753 6.02055 376.607 2.07388 368.193C-0.726122 363.407 0.153881 357.7 0.0605472 352.42C0.0738806 242.193 0.0605472 131.967 0.0605472 21.7265ZM50.0739 101.887C46.8739 104.22 47.7672 108.54 47.7539 111.94C49.6472 113.567 51.2072 116.273 54.0339 116.113C65.9672 116.407 77.9406 116.287 89.8739 116.113C92.7006 116.26 94.2605 113.553 96.1539 111.927C96.1272 109.58 96.1272 107.22 96.2072 104.873C94.4206 103.113 92.6205 101.34 90.8205 99.5932C79.8472 99.5932 68.8605 99.6732 57.8872 99.5665C55.1005 99.4198 52.0739 99.6732 50.0739 101.887ZM53.1272 148.98C49.4072 151.98 46.7939 156.247 47.7672 161.18C49.5805 162.94 51.3539 164.727 53.1405 166.513C58.5405 166.113 65.1805 168.3 69.4339 163.913C72.6739 160.967 73.1672 155.527 69.9805 152.353C65.9805 147.033 58.7539 149.367 53.1272 148.98ZM95.9272 150.46C90.4339 154.767 92.2072 165.433 99.5939 166.447C109.234 166.687 118.901 166.473 128.554 166.54C132.394 166.873 134.981 163.62 137.514 161.287C137.461 158.927 137.461 156.567 137.527 154.22C135.741 152.447 133.941 150.687 132.141 148.927C122.501 148.913 112.861 148.993 103.221 148.887C100.741 148.953 97.9406 148.673 95.9272 150.46ZM51.7805 199.567C50.5272 200.98 49.1939 202.327 47.7939 203.607C47.7672 206.233 47.3672 208.993 48.2872 211.527C50.0472 214.287 53.1805 216.353 56.5672 215.967C90.6605 215.873 124.741 216.007 158.821 215.913C160.607 214.127 162.381 212.34 164.167 210.567C164.807 206.34 163.341 202.393 160.181 199.567C150.554 199.06 140.914 199.38 131.287 199.34C104.794 199.447 78.2739 198.98 51.7805 199.567ZM189.047 199.513C187.181 201.727 184.741 204.02 184.994 207.193C184.207 211.207 188.047 213.447 190.447 215.887C201.754 215.847 213.074 216.087 224.381 215.86C232.527 215.193 233.621 201.433 225.687 199.58C213.487 199.127 201.247 199.287 189.047 199.513ZM51.7939 248.9C50.5272 250.313 49.1805 251.66 47.7805 252.94C47.0605 257.553 47.7805 263.647 53.1272 265.033C65.8339 265.673 78.5805 265.02 91.3139 265.327C94.9005 265.153 99.2472 266.1 102.007 263.14C104.861 260.54 104.247 256.407 104.114 252.953C102.714 251.673 101.381 250.34 100.101 248.953C84.0072 248.513 67.8872 248.687 51.7939 248.9ZM209.141 270.46C205.927 271.367 203.607 274.513 203.607 277.847C203.194 286.7 203.607 295.58 203.434 304.447C203.647 307.287 203.047 310.82 205.407 312.967C208.834 316.753 215.461 317.247 219.154 313.607C222.461 311.207 221.634 306.66 221.821 303.113C221.501 294.3 222.047 285.473 221.527 276.673C220.821 270.887 214.034 269.02 209.141 270.46ZM53.0739 298.26C51.2872 300.007 49.5005 301.78 47.7272 303.553C47.8205 305.887 47.8205 308.233 47.8205 310.567C49.6872 312.193 51.2339 314.9 54.0339 314.793C64.1272 315.047 74.2472 315.1 84.3272 314.66C92.2472 312.753 91.2605 298.98 83.0472 298.327C73.0605 298.087 63.0605 298.313 53.0739 298.26ZM155.767 298.287C150.461 301.633 149.047 310.687 154.581 314.393C162.487 315.793 170.754 315.58 178.687 314.46C184.927 311.34 184.421 301.78 178.781 298.313C171.114 298.167 163.434 298.18 155.767 298.287ZM246.434 298.26C244.647 300.06 242.887 301.887 241.101 303.673C240.367 308.22 242.581 313.887 247.554 314.727C254.927 315.7 262.461 315.407 269.861 314.82C272.687 314.913 274.247 312.26 276.127 310.593C276.741 305.98 276.154 299.86 270.794 298.46C262.687 297.86 254.541 298.393 246.434 298.26Z" fill="#FEFDFE"/>
<path d="M219.007 13.0864C222.78 14.0331 225.074 17.4064 227.78 19.9264C254.02 46.1131 280.14 72.4198 306.46 98.5398C307.407 99.6064 308.247 100.766 308.954 102.02C284.407 102.713 259.834 102.086 235.287 102.38C226.274 103.446 217.62 94.7798 218.714 85.7664C218.954 61.5398 218.434 37.2998 219.007 13.0864Z" fill="#FEFDFE"/>
</svg>
