<svg width="125" height="381" viewBox="0 0 125 381" fill="none" xmlns="http://www.w3.org/2000/svg">
<path d="M93.9424 8.37947C111.823 17.9916 123.688 36.6949 124.891 56.1034C126.241 76.9984 114.951 98.0396 96.5293 109.45C93.1202 111.61 89.4906 113.668 86.9572 116.8C82.4653 121.806 78.5617 127.53 76.9775 134.004C76.416 136.386 75.42 138.705 75.3933 141.177C75.4267 216.168 75.3732 291.159 75.42 366.15C75.5604 368.57 73.0471 369.955 71.7236 371.728C68.7089 374.631 65.975 377.776 63.0205 380.73C60.6877 380.006 59.3307 377.96 57.7666 376.308C55.3134 373.564 52.3857 371.213 50.1531 368.297C49.4646 367.503 49.5849 366.455 49.5515 365.515C49.6183 360.254 49.4913 354.994 49.6117 349.74C33.1748 349.645 16.7312 349.918 0.301041 349.6C0.000244465 343.228 0.207462 336.837 0.240884 330.459C11.5843 330.16 22.9544 330.548 34.3044 330.287C38.7897 329.626 38.803 322.765 34.6052 321.533C30.1668 320.84 25.568 321.755 21.1095 321.094C17.5868 319.665 15.7353 315.402 17.5735 312.111C18.1751 309.926 20.6015 309.316 22.3996 308.293C25.7351 306.101 24.445 300.097 20.2472 299.71C13.5762 299.526 6.89183 299.862 0.227513 299.564C0.127247 293.325 0.113875 287.08 0.234193 280.841C16.6844 280.651 33.1614 280.702 49.6117 280.816C49.4847 234.496 49.6117 188.17 49.5448 141.85C48.8229 128.769 40.7482 116.286 28.8634 109.678C14.9064 101.083 4.5523 87.176 1.23017 71.6365C-0.561243 65.7536 0.133936 59.5721 0.127251 53.5367C2.01893 35.2655 13.5829 18.2203 30.1334 8.79877C43.5957 0.99091 60.3334 -2.10301 75.7609 1.48645C82.0777 3.04294 88.4278 4.98061 93.9424 8.37947ZM82.1445 36.0278C80.8812 28.6647 74.3973 22.2672 66.6234 21.0093C61.4296 19.9801 55.7145 20.9267 51.4565 24.0206C46.2895 27.2416 43.0677 33.0737 43.0275 38.9248C42.553 49.2421 52.8603 59.0956 63.8427 57.9076C75.1994 57.825 84.3838 46.4976 82.1445 36.0278Z" fill="#FDFDFD"/>
</svg>
