<svg width="820" height="1009" viewBox="0 0 820 1009" fill="none" xmlns="http://www.w3.org/2000/svg">
<path d="M299.995 1.64803C313.662 -2.6453 330.462 1.86137 338.502 14.1814C341.582 18.5947 340.395 24.1947 340.542 29.2214C340.635 33.8214 338.102 37.8214 336.222 41.848C329.035 55.8347 322.635 70.1947 316.328 84.568C305.622 104.301 297.875 125.395 287.862 145.448C286.142 149.035 283.755 152.381 283.155 156.408C288.728 155.235 293.502 151.875 298.568 149.421C305.035 144.875 312.675 142.461 319.208 138.048C325.408 134.288 332.342 131.848 338.408 127.848C343.635 124.395 349.675 122.461 354.942 119.061C361.235 114.848 368.502 112.408 374.915 108.421C380.968 104.488 387.902 102.168 393.902 98.128C400.755 93.448 409.355 95.288 417.115 94.9947C425.355 94.528 431.328 101.061 438.568 103.808C450.942 109.181 462.035 116.915 474.048 122.941C482.288 128.395 491.702 131.701 500.168 136.768C504.755 140.075 510.142 141.941 515.062 144.688C522.222 149.155 529.768 153.221 537.568 156.355C537.968 152.021 535.128 148.648 533.368 144.981C519.875 117.355 508.328 88.8214 494.288 61.4214C490.768 52.768 486.488 44.4614 482.368 36.088C477.355 26.448 481.035 13.6214 489.782 7.4347C495.302 3.34137 501.848 -0.231967 508.955 0.261366C519.928 -0.911967 529.955 5.42137 537.862 12.3947C548.675 20.7414 560.088 28.2614 570.902 36.608C591.462 52.448 612.662 67.6747 633.048 83.808C654.608 98.8747 674.875 115.768 695.768 131.741C703.462 136.835 708.888 144.408 714.568 151.501C719.062 157.981 721.368 165.688 725.888 172.155C729.968 178.341 731.648 185.701 735.475 192.008C739.822 198.675 743.222 205.901 746.035 213.328C758.915 239.115 771.808 264.888 784.702 290.661C788.982 298.608 791.822 307.208 796.288 315.075C799.462 324.048 805.035 332.048 807.102 341.435C807.595 348.421 807.915 355.848 804.782 362.341C799.408 370.981 792.728 378.715 787.075 387.168C777.515 401.048 766.702 414.035 757.288 428.021C750.462 436.595 744.448 445.728 737.942 454.515C753.502 475.355 770.422 495.181 786.008 516.021C789.742 520.728 793.635 525.315 797.275 530.101C804.435 541.141 815.502 550.075 818.688 563.341C820.288 570.395 820.062 577.835 819.048 584.968C806.728 621.128 792.342 656.595 778.848 692.315C774.222 702.568 770.915 713.355 766.102 723.528C761.475 736.435 755.635 748.835 750.755 761.635C743.542 777.888 739.048 796.075 726.555 809.368C715.875 820.821 701.768 828.021 689.448 837.475C667.622 852.221 645.715 866.861 623.515 881.061C604.342 893.315 586.035 906.875 566.515 918.581C540.568 935.821 513.942 952.048 487.928 969.141C472.968 978.195 458.608 988.288 443.222 996.675C435.008 1001.21 426.995 1006.97 417.448 1008.22C409.195 1009.69 400.662 1008.19 392.915 1005.23C372.248 993.781 352.608 980.648 332.315 968.608C327.062 964.261 320.408 962.101 315.288 957.555C295.462 944.928 275.422 932.608 255.795 919.675C242.808 912.608 231.302 903.248 218.782 895.435C188.262 874.768 156.995 855.221 127.008 833.755C122.782 830.928 118.142 828.675 114.395 825.155C110.382 821.501 104.702 820.035 101.408 815.541C98.2218 811.635 94.0351 808.648 91.1551 804.475C88.7284 800.995 86.7551 797.235 84.5151 793.635C80.8618 787.888 79.2484 781.155 76.2351 775.101C71.8218 765.981 69.0351 756.195 64.7551 747.035C60.7417 735.661 54.9551 725.008 51.1951 713.541C48.8351 709.328 48.2884 704.395 45.8618 700.221C42.6884 694.875 42.5818 688.341 39.1151 683.141C35.1551 673.741 32.0884 663.968 27.8751 654.648C21.6751 636.261 13.5418 618.621 7.22175 600.275C4.47509 591.808 -0.124914 583.635 0.075086 574.501C-0.124914 568.275 2.08842 562.301 4.59509 556.715C9.04842 547.035 16.9551 539.675 23.3284 531.315C33.6618 517.728 44.5951 504.648 54.9018 491.061C58.2751 486.061 62.6218 481.835 66.1684 476.968C71.7951 469.648 77.1551 462.035 83.5684 455.355C74.5818 442.048 65.0084 429.088 55.1551 416.395C43.1551 399.141 30.3418 382.488 18.2751 365.301C13.0218 357.408 12.0484 347.421 14.3684 338.381C17.1551 331.541 20.6351 325.008 23.8084 318.355C28.8084 304.515 36.4084 291.848 42.6618 278.595C61.3684 240.915 80.2084 203.315 99.1018 165.728C105.662 151.608 115.568 138.848 128.462 130.008C145.328 117.101 161.728 103.595 178.808 90.968C188.928 82.3014 200.302 75.2347 210.435 66.5947C236.155 47.4614 261.915 28.3147 287.662 9.20803C291.782 6.68803 295.208 3.00803 299.995 1.64803ZM283.675 14.4747C268.168 27.168 251.168 37.9414 235.448 50.2747C232.302 54.1147 234.715 59.3814 235.675 63.6347C236.528 67.9947 241.075 70.1414 242.342 74.3147C242.702 76.3814 244.622 77.048 246.408 77.488C217.248 102.141 186.302 124.701 156.995 149.168C148.275 156.275 137.982 162.381 132.768 172.768C125.995 186.141 119.008 199.421 113.088 213.208C105.675 228.088 97.9284 242.821 91.3551 258.101C82.3684 276.075 74.2751 294.448 65.9551 312.728C61.4351 323.555 55.2351 333.768 52.1284 345.141C53.8751 351.701 59.7151 355.915 63.5151 361.261C88.3418 390.341 113.422 419.248 138.635 447.968C138.462 450.008 136.768 451.515 135.768 453.208C115.835 480.221 94.3018 506.008 73.6884 532.501C67.4218 541.261 59.6351 548.808 53.4618 557.635C49.9684 562.088 45.8484 566.035 42.6351 570.728C40.5151 573.381 39.3951 577.021 40.5418 580.341C53.6084 615.088 67.2218 649.635 80.2484 684.408C90.6351 712.781 101.555 740.981 113.275 768.821C115.262 773.955 117.608 779.355 122.328 782.555C136.222 792.315 150.728 801.181 164.755 810.768C176.635 817.808 187.675 826.141 199.462 833.355C209.875 839.568 219.648 846.808 228.955 854.555C240.182 863.355 251.462 872.101 262.928 880.581C272.288 887.435 282.488 893.008 292.222 899.301C316.488 913.688 340.528 928.461 365.155 942.235C372.888 946.515 380.155 951.595 388.115 955.488C395.755 959.395 402.795 965.648 411.648 966.341C418.528 965.008 424.422 960.728 430.448 957.368C472.115 934.275 512.848 909.501 552.795 883.555C565.382 874.475 577.515 864.768 589.688 855.141C607.542 842.048 626.302 830.275 644.982 818.408C658.075 809.115 672.195 801.368 685.222 791.981C693.422 786.288 704.075 781.915 707.648 771.795C717.688 748.075 725.888 723.648 735.568 699.781C747.635 665.595 761.355 632.008 773.755 597.928C776.035 591.088 779.528 584.461 779.968 577.141C780.222 571.048 775.275 566.781 771.782 562.448C758.888 546.421 746.008 530.381 733.262 514.248C720.382 497.355 706.728 481.021 694.302 463.808C690.315 459.435 686.368 454.888 683.502 449.675C689.435 445.128 693.382 438.648 698.928 433.715C708.742 422.181 719.182 411.168 728.195 398.981C733.488 393.581 738.168 387.635 743.048 381.875C744.515 379.968 746.502 378.008 745.968 375.368C752.715 366.675 759.782 358.181 767.022 349.875C769.142 347.368 769.475 343.621 767.955 340.728C762.915 329.448 757.288 318.448 752.755 306.941C753.782 306.781 755.848 306.448 756.875 306.275C758.515 301.488 757.155 296.688 755.968 291.995C757.048 289.448 759.635 288.341 762.128 287.648C764.782 287.061 765.835 284.248 768.035 282.915C770.862 281.261 772.435 278.368 774.075 275.661C769.742 262.675 761.862 251.235 757.062 238.435C748.955 221.768 740.502 205.261 732.275 188.661C727.848 176.875 720.995 166.248 715.022 155.235C711.622 149.061 706.248 144.368 702.302 138.581C699.408 135.581 695.582 133.675 692.448 130.955C673.555 115.035 653.328 100.835 633.835 85.688C631.288 83.208 628.328 81.2614 625.288 79.4614C614.488 70.128 602.195 62.688 591.435 53.328C581.368 45.5414 570.768 38.568 560.835 30.608C553.768 26.248 547.675 20.5014 540.582 16.168C533.835 11.768 528.448 5.1147 520.475 2.78137C509.915 0.5147 497.542 1.68803 489.648 9.80803C482.942 15.5947 479.928 25.9414 483.782 34.1147C488.902 46.9014 496.102 58.7414 501.182 71.5547C505.022 78.248 507.062 85.768 511.035 92.3947C515.448 101.448 518.382 111.195 523.355 119.981C525.422 126.821 529.715 132.661 531.835 139.475C534.582 146.315 539.048 152.408 541.142 159.528C532.302 153.901 522.088 150.541 513.115 145.035C508.035 141.395 501.808 139.795 496.848 135.955C485.488 129.888 473.555 124.835 462.622 118.035C449.302 110.755 435.728 103.808 422.075 97.1014C419.822 96.5147 417.462 96.528 415.155 96.3547C413.355 95.288 411.195 94.9814 409.195 95.608C404.942 97.008 400.088 96.1147 396.315 98.928C376.222 108.821 356.515 119.368 336.902 130.195C331.928 132.835 326.568 134.781 321.888 137.955C316.462 141.701 310.075 143.688 304.635 147.395C298.662 151.515 291.648 153.715 285.662 157.795C284.008 158.528 281.422 160.448 280.102 158.315C286.875 144.221 292.835 129.741 299.515 115.595C303.715 105.741 309.528 96.6614 313.288 86.608C319.355 72.0214 327.262 58.2747 332.982 43.5414C334.862 38.2747 339.262 33.7547 338.928 27.8614C338.795 23.768 339.568 19.2747 337.368 15.5814C333.128 9.30137 326.768 4.64803 319.595 2.26137C314.328 1.6747 308.968 1.92803 303.688 2.0747C295.795 3.8347 289.955 9.80803 283.675 14.4747Z" fill="#6130AD" stroke="#6130AD" stroke-width="0.125"/>
<path d="M283.675 14.4746C289.955 9.80796 295.795 3.83462 303.688 2.07462C308.968 1.92796 314.328 1.67462 319.595 2.26129C326.768 4.64796 333.128 9.30129 337.368 15.5813C339.568 19.2746 338.795 23.768 338.928 27.8613C339.262 33.7546 334.862 38.2746 332.982 43.5413C327.262 58.2746 319.355 72.0213 313.288 86.608C309.528 96.6613 303.715 105.741 299.515 115.595C292.835 129.741 286.875 144.221 280.102 158.315C281.422 160.448 284.008 158.528 285.662 157.795C291.648 153.715 298.662 151.515 304.635 147.395C310.075 143.688 316.462 141.701 321.888 137.955C326.568 134.781 331.928 132.835 336.902 130.195C356.515 119.368 376.222 108.821 396.315 98.928C400.088 96.1146 404.942 97.008 409.195 95.608C411.195 94.9813 413.355 95.288 415.155 96.3546C417.462 96.528 419.822 96.5146 422.075 97.1013C435.728 103.808 449.302 110.755 462.622 118.035C473.555 124.835 485.488 129.888 496.848 135.955C501.808 139.795 508.035 141.395 513.115 145.035C522.088 150.541 532.302 153.901 541.142 159.528C539.048 152.408 534.582 146.315 531.835 139.475C529.715 132.661 525.422 126.821 523.355 119.981C518.382 111.195 515.448 101.448 511.035 92.3946C507.062 85.768 505.022 78.248 501.182 71.5546C496.102 58.7413 488.902 46.9013 483.782 34.1146C479.928 25.9413 482.942 15.5946 489.648 9.80796C497.542 1.68796 509.915 0.514624 520.475 2.78129C528.448 5.11462 533.835 11.768 540.582 16.168C547.675 20.5013 553.768 26.248 560.835 30.608C570.768 38.568 581.368 45.5413 591.435 53.328C602.195 62.688 614.488 70.128 625.288 79.4613C628.328 81.2613 631.288 83.208 633.835 85.688C653.328 100.835 673.555 115.035 692.448 130.955C695.582 133.675 699.408 135.581 702.302 138.581C706.248 144.368 711.622 149.061 715.022 155.235C720.995 166.248 727.848 176.875 732.275 188.661C740.502 205.261 748.955 221.768 757.062 238.435C761.862 251.235 769.742 262.675 774.075 275.661C772.435 278.368 770.862 281.261 768.035 282.915C765.835 284.248 764.782 287.061 762.128 287.648C759.635 288.341 757.048 289.448 755.968 291.995C757.155 296.688 758.515 301.488 756.875 306.275C755.848 306.448 753.782 306.781 752.755 306.941C748.875 297.235 743.955 287.981 739.768 278.408C722.368 242.461 705.968 206.021 687.608 170.541C683.728 162.741 676.182 157.941 669.742 152.448C627.542 118.621 585.288 84.848 542.795 51.3946C536.955 47.0213 531.302 42.3813 525.288 38.248C520.475 34.968 516.142 30.688 510.382 29.128C512.502 35.1013 516.222 40.3013 519.022 45.968C551.982 105.195 583.982 164.981 613.488 226.021C616.035 232.115 618.808 238.101 622.275 243.728C608.795 236.715 595.795 228.675 582.768 220.755C563.968 210.368 545.448 199.461 526.688 188.981C511.808 180.195 496.275 172.528 481.702 163.221C462.528 152.235 443.582 140.901 424.542 129.701C418.768 126.435 411.768 125.021 405.288 126.821C399.502 128.448 394.542 131.955 389.288 134.741C374.248 142.528 360.128 151.928 345.248 159.995C338.808 163.781 332.088 167.115 325.995 171.448C314.862 177.555 303.782 183.781 292.942 190.421C281.048 197.408 268.768 203.768 257.142 211.235C255.035 207.728 261.302 206.235 260.835 202.701C258.968 199.275 255.968 196.448 254.982 192.555C253.768 187.648 250.115 183.995 247.728 179.688C246.155 176.781 242.302 175.875 240.968 172.901C240.675 169.315 241.635 165.781 242.155 162.248C262.248 121.008 284.235 80.7146 305.088 39.848C306.782 36.7413 308.462 33.568 309.315 30.088C306.702 31.0746 304.262 32.448 302.115 34.208C291.688 42.488 280.808 50.1946 270.515 58.648C262.755 65.2746 253.968 70.6213 246.408 77.488C244.622 77.048 242.702 76.3813 242.342 74.3146C241.075 70.1413 236.528 67.9946 235.675 63.6346C234.715 59.3813 232.302 54.1146 235.448 50.2746C251.168 37.9413 268.168 27.168 283.675 14.4746Z" fill="#C579F2" stroke="#C579F2" stroke-width="0.125"/>
<path d="M510.382 29.1279C516.142 30.6879 520.475 34.9679 525.288 38.2479C531.302 42.3812 536.955 47.0212 542.795 51.3945C585.288 84.8479 627.542 118.621 669.742 152.448C676.182 157.941 683.728 162.741 687.608 170.541C705.968 206.021 722.368 242.461 739.768 278.408C743.955 287.981 748.875 297.235 752.755 306.941C757.288 318.448 762.915 329.448 767.955 340.728C769.475 343.621 769.142 347.368 767.022 349.875C759.782 358.181 752.715 366.675 745.968 375.368C736.822 386.568 727.248 397.421 717.675 408.261C717.648 405.995 718.795 403.141 716.822 401.381C714.355 398.621 711.888 395.568 711.515 391.741C711.995 386.995 714.342 382.741 715.755 378.248C717.088 379.515 718.382 380.821 719.568 382.248C721.382 380.181 723.595 378.328 724.782 375.795C723.475 371.781 721.128 368.181 719.302 364.395C717.928 364.448 716.555 364.448 715.195 364.448C714.648 360.501 713.862 356.088 716.408 352.621C717.675 349.941 720.768 349.515 723.288 348.688C720.395 345.261 718.248 341.195 717.342 336.795C716.262 331.235 712.542 326.741 710.968 321.355C704.795 321.941 700.848 327.568 695.755 330.555C676.262 349.715 657.022 369.155 637.675 388.488C633.808 392.261 628.995 395.061 625.808 399.541C614.288 403.475 602.035 400.075 590.328 402.621C583.488 403.688 576.528 402.061 569.715 403.435C560.848 405.381 551.742 403.408 542.822 404.608C532.955 406.328 522.888 406.088 513.008 407.675C503.928 408.035 493.328 407.581 486.462 414.675C488.982 421.168 496.688 420.288 502.355 420.928C512.715 421.461 522.635 425.581 533.088 424.928C537.688 424.941 541.875 422.768 546.368 422.128C549.182 421.861 551.488 423.648 553.728 425.061C551.155 426.701 548.555 428.301 546.048 430.035L547.382 430.141C546.955 445.248 547.128 460.368 547.315 475.488C532.408 475.795 517.488 475.155 502.582 475.488C502.208 460.421 502.608 445.341 502.342 430.261C490.408 430.141 478.462 430.048 466.528 430.328C466.368 470.715 466.408 511.088 466.728 551.475C478.515 551.341 490.302 551.381 502.088 551.448C502.475 534.715 502.382 517.968 502.502 501.235C517.435 501.155 532.408 500.501 547.315 501.328C547.302 518.048 546.635 534.821 547.675 551.488C559.208 551.301 570.742 551.341 582.262 551.488C583.195 527.621 582.315 503.701 582.662 479.821C582.475 463.288 582.662 446.755 582.555 430.235L583.768 430.701C583.888 433.421 583.915 436.155 583.982 438.888C589.008 438.768 592.062 443.475 593.182 447.861C595.782 456.195 593.742 465.008 595.502 473.475C596.502 483.101 595.822 492.848 595.942 502.528C594.222 511.795 595.115 521.261 593.502 530.555C593.568 536.701 591.902 542.981 587.488 547.461C585.115 547.341 585.088 544.008 583.955 542.448C583.635 547.861 585.368 554.408 581.395 558.835C577.528 561.581 572.502 562.648 567.835 562.661C563.542 561.208 559.635 558.768 555.208 557.701C547.435 555.608 539.888 552.008 531.715 551.915C526.008 552.475 520.942 555.541 515.408 556.848C510.542 557.995 505.875 559.848 501.035 561.048C495.928 560.581 491.608 556.795 486.368 557.021C479.235 557.395 471.902 559.781 464.902 557.181C458.288 554.528 451.222 556.555 444.382 556.608C435.955 557.315 427.462 556.235 419.088 557.635C414.275 558.315 409.448 559.861 404.555 558.928C395.902 557.408 387.102 558.821 378.395 558.115C369.568 557.368 360.715 555.795 352.528 552.261C348.942 550.741 346.795 547.075 343.302 545.475C335.448 545.528 327.622 547.008 320.315 549.901C319.182 549.075 318.048 548.275 316.888 547.515C322.835 543.981 329.168 540.195 332.475 533.848C341.955 519.941 339.755 498.515 326.048 488.101C314.262 478.128 298.555 475.928 284.315 471.381C278.902 469.688 272.955 468.195 268.888 463.995C266.502 459.848 269.048 453.808 273.742 452.608C282.822 450.061 292.515 450.395 301.795 451.461C310.222 453.555 318.608 456.381 325.995 461.035C327.902 452.861 330.835 444.808 331.328 436.381C325.195 431.955 317.435 430.368 310.155 428.781C310.928 428.368 312.462 427.528 313.235 427.115C311.368 426.741 309.542 426.248 307.688 425.888C311.355 421.661 317.488 424.061 322.235 422.435C330.288 421.395 336.888 416.168 344.622 414.208C350.995 414.235 357.035 412.195 363.328 411.435C367.155 410.701 367.662 406.235 368.368 403.101C369.595 402.581 370.835 402.061 372.088 401.541C373.262 395.261 377.835 390.661 381.968 386.141C384.795 383.395 383.568 379.141 383.568 375.675C379.875 376.181 376.248 376.981 372.728 378.195C377.195 374.328 381.662 370.448 385.768 366.208C384.008 361.315 382.982 355.848 379.182 352.035C378.328 347.648 377.368 343.115 378.555 338.701C381.195 328.995 385.728 319.955 389.048 310.488C377.088 319.128 365.822 328.928 355.915 339.888C356.142 337.595 356.568 335.328 357.035 333.061C351.928 329.648 344.128 327.888 343.155 320.741C342.515 312.821 342.288 303.928 336.128 298.021C333.862 295.301 329.662 297.621 327.328 294.901C324.288 292.235 319.728 289.808 319.782 285.195C320.728 281.155 322.488 277.355 323.422 273.315C320.502 268.141 320.368 262.101 319.528 256.381C318.728 256.395 317.142 256.448 316.355 256.461C325.862 239.461 338.248 224.301 349.982 208.821C353.568 203.528 360.208 200.115 361.022 193.235C368.742 185.821 376.248 178.195 383.835 170.635C387.622 166.875 392.075 163.835 395.675 159.861C389.728 161.875 384.955 166.075 379.475 168.968C371.315 173.435 363.808 178.955 356.288 184.395C348.102 190.301 341.128 197.675 333.355 204.061C332.915 202.741 332.528 201.421 332.195 200.075C332.955 199.275 333.728 198.488 334.488 197.688C333.115 198.075 331.742 198.475 330.382 198.875C327.382 196.888 324.608 194.555 322.088 191.995C323.355 183.555 329.968 177.968 335.608 172.248C332.395 172.008 329.195 171.715 325.995 171.448C332.088 167.115 338.808 163.781 345.248 159.995C360.128 151.928 374.248 142.528 389.288 134.741C394.542 131.955 399.502 128.448 405.288 126.821C411.768 125.021 418.768 126.435 424.542 129.701C443.582 140.901 462.528 152.235 481.702 163.221C496.275 172.528 511.808 180.195 526.688 188.981C545.448 199.461 563.968 210.368 582.768 220.755C595.795 228.675 608.795 236.715 622.275 243.728C618.808 238.101 616.035 232.115 613.488 226.021C583.982 164.981 551.982 105.195 519.022 45.9679C516.222 40.3012 512.502 35.1012 510.382 29.1279ZM569.315 93.2879C571.768 99.4879 577.302 103.795 581.022 109.235C582.395 113.981 586.222 117.341 588.648 121.515C593.702 129.675 599.248 137.528 605.022 145.208C611.648 154.328 616.022 164.901 623.075 173.728C626.955 178.835 630.888 183.955 633.995 189.595C635.408 191.955 633.835 195.155 635.622 197.355C636.302 205.541 640.128 212.995 640.955 221.141C641.622 227.528 644.395 233.408 645.328 239.755C649.688 254.675 652.382 270.061 655.675 285.275C656.088 289.275 658.275 294.261 654.635 297.408C637.942 319.275 620.435 340.515 603.088 361.848C596.862 366.115 589.168 367.408 582.355 370.475C567.142 376.075 551.835 381.408 536.835 387.581C521.088 393.675 505.822 401.035 489.675 406.021C488.515 406.381 487.435 406.928 486.462 407.635C502.808 405.595 518.568 400.341 534.222 395.381C537.395 395.128 539.982 396.915 542.608 398.368C548.822 398.915 555.182 398.928 561.328 397.635C566.888 396.701 572.608 398.061 578.155 397.008C581.208 395.795 584.275 394.581 587.622 394.501C591.728 394.461 594.422 391.035 597.208 388.501C598.888 388.621 601.048 389.448 601.822 387.315C603.688 383.715 607.275 381.875 610.808 380.275C611.248 376.048 615.302 374.155 616.942 370.648C621.355 363.981 625.915 357.368 631.448 351.568C645.128 334.435 658.182 316.848 671.115 299.155C672.928 296.955 673.888 293.435 677.048 292.848C684.862 297.288 692.942 301.235 701.008 305.181C705.635 307.355 710.262 309.861 715.448 310.368C711.702 295.368 705.102 281.261 699.088 267.061C690.115 243.875 680.462 220.968 670.835 198.061C668.915 191.008 663.102 186.301 658.182 181.328C644.502 167.448 631.182 153.248 617.502 139.368C603.115 124.355 587.262 110.861 572.955 95.7812C571.955 94.6479 570.608 93.9545 569.315 93.2879ZM421.168 158.635C433.182 167.235 443.555 177.795 453.808 188.368C460.448 195.128 467.448 201.635 472.662 209.621C477.608 215.395 482.622 221.181 486.542 227.755C492.328 233.768 495.128 241.955 500.982 248.021C503.022 254.328 507.195 259.568 510.075 265.475C512.408 270.248 514.662 275.075 517.088 279.808C523.115 290.821 526.662 302.928 531.928 314.301C523.662 324.501 516.488 335.555 508.328 345.848C500.822 354.808 494.115 364.408 486.182 373.021C483.582 376.941 479.048 379.301 477.102 383.621C481.688 382.755 485.355 379.608 489.568 377.768C495.848 374.888 501.742 371.288 507.795 367.981C511.822 365.728 514.902 362.128 517.235 358.208C517.622 361.755 519.102 365.128 522.275 367.021C525.822 365.381 528.688 362.755 530.902 359.568C534.635 357.955 536.022 353.701 538.715 350.901C549.022 336.755 560.955 323.795 570.302 308.968C571.355 306.901 569.235 305.941 567.728 305.275C566.795 302.435 564.835 300.115 563.182 297.688C553.582 284.595 544.928 270.821 534.755 258.168C519.662 237.915 503.848 218.021 485.128 200.995C470.888 187.128 453.742 176.861 436.888 166.555C431.928 163.461 427.115 159.595 421.168 158.635ZM430.488 309.301C435.382 320.901 441.262 332.421 442.675 345.101C442.702 350.835 438.888 355.528 436.222 360.315C433.502 363.861 430.195 368.635 425.155 368.275C416.675 368.008 408.168 367.301 399.688 368.221C405.408 371.048 411.755 372.421 417.422 375.421C428.715 380.261 439.582 386.248 451.235 390.141C452.155 387.115 453.275 384.155 453.982 381.061C457.702 366.448 465.195 352.381 464.795 336.995L464.142 337.915C453.862 327.435 443.675 316.075 430.488 309.301ZM357.688 439.021C341.008 451.635 342.928 480.115 359.835 491.688C375.755 502.955 396.448 502.661 413.555 511.315C419.155 513.848 418.902 522.915 413.782 525.848C410.155 528.648 405.462 528.915 401.062 528.995C384.035 529.901 366.995 525.261 352.075 517.221C351.195 523.515 351.195 529.995 349.115 536.075C348.222 538.368 348.155 540.848 348.102 543.301C353.248 545.328 357.982 548.475 363.542 549.381C368.515 550.195 373.208 552.341 378.275 552.728C387.168 553.541 396.128 553.981 405.062 553.435C413.928 552.141 423.262 551.861 431.182 547.195C443.048 541.515 451.262 529.061 451.008 515.795C451.742 506.061 448.475 495.755 440.835 489.355C429.395 479.595 414.582 474.941 400.008 472.341C393.062 470.168 385.248 469.115 380.168 463.328C380.275 460.341 379.648 456.581 382.435 454.581C387.582 450.088 394.782 451.355 401.048 451.168C414.275 450.461 427.155 454.728 439.102 459.928C439.382 451.835 443.422 444.395 443.395 436.248C435.902 433.275 428.542 429.648 420.488 428.488C409.755 426.075 398.662 426.501 387.755 427.008C376.982 428.301 365.742 431.315 357.688 439.021Z" fill="#382D5B" stroke="#382D5B" stroke-width="0.125"/>
<path d="M302.115 34.2081C304.262 32.4481 306.702 31.0747 309.315 30.0881C308.462 33.5681 306.782 36.7414 305.088 39.8481C284.235 80.7147 262.248 121.008 242.155 162.248C234.902 173.381 231.048 186.275 224.168 197.608C217.302 212.768 209.195 227.395 203.262 242.955C210.155 240.208 215.968 235.448 222.488 231.981C233.915 224.875 246.048 218.875 257.142 211.235C268.768 203.768 281.048 197.408 292.942 190.421C303.782 183.781 314.862 177.555 325.995 171.448C329.195 171.715 332.395 172.008 335.608 172.248C329.968 177.968 323.355 183.555 322.088 191.995C324.608 194.555 327.382 196.888 330.382 198.875C331.742 198.475 333.115 198.075 334.488 197.688C333.728 198.488 332.955 199.275 332.195 200.075C332.528 201.421 332.915 202.741 333.355 204.061C324.622 212.901 316.262 222.075 308.248 231.555C301.302 238.368 295.728 246.421 290.048 254.288C279.675 267.635 270.342 281.728 260.955 295.781C258.035 300.101 254.475 304.048 252.395 308.888C254.795 316.288 260.022 322.181 264.382 328.461C273.728 341.315 282.848 354.355 292.475 366.995C294.982 371.075 300.088 371.395 304.222 372.768C312.022 375.168 320.488 374.888 327.955 378.435C333.928 381.275 340.315 383.048 346.475 385.448C345.675 382.661 344.275 380.048 341.608 378.701C333.302 370.675 326.195 361.475 318.902 352.541C308.288 340.221 298.462 327.261 288.662 314.315C288.555 309.928 291.155 306.261 292.942 302.475C299.902 286.728 307.582 271.288 316.355 256.461C317.142 256.448 318.728 256.395 319.528 256.381C320.368 262.101 320.502 268.141 323.422 273.315C322.488 277.355 320.728 281.155 319.782 285.195C319.728 289.808 324.288 292.235 327.328 294.901C329.662 297.621 333.862 295.301 336.128 298.021C342.288 303.928 342.515 312.821 343.155 320.741C344.128 327.888 351.928 329.648 357.035 333.061C356.568 335.328 356.142 337.595 355.915 339.888C356.155 341.715 356.542 343.515 356.902 345.315C358.488 358.261 362.675 370.661 365.315 383.395C367.702 381.541 370.128 379.741 372.728 378.195C376.248 376.981 379.875 376.181 383.568 375.675C383.568 379.141 384.795 383.395 381.968 386.141C377.835 390.661 373.262 395.261 372.088 401.541C370.835 402.061 369.595 402.581 368.368 403.101C367.662 406.235 367.155 410.701 363.328 411.435C357.035 412.195 350.995 414.235 344.622 414.208C336.888 416.168 330.288 421.395 322.235 422.435C317.488 424.061 311.355 421.661 307.688 425.888C309.542 426.248 311.368 426.741 313.235 427.115C312.462 427.528 310.928 428.368 310.155 428.781C291.755 425.008 271.542 424.475 254.315 432.955C243.488 438.035 235.835 449.181 235.195 461.128C234.395 470.635 236.942 480.821 243.782 487.741C249.102 493.648 256.675 496.581 263.822 499.595C263.622 506.328 270.968 509.421 276.355 511.235C281.982 513.461 282.382 520.141 283.755 525.168C286.542 527.901 290.915 527.595 294.515 528.168C283.928 529.541 272.968 529.328 262.702 526.168C254.368 524.155 246.728 520.221 238.782 517.168C237.902 525.635 235.902 533.928 234.422 542.315C252.195 553.515 274.022 554.421 294.408 553.448C302.128 552.555 309.622 550.195 316.888 547.515C318.048 548.275 319.182 549.075 320.315 549.901C327.622 547.008 335.448 545.528 343.302 545.475C346.795 547.075 348.942 550.741 352.528 552.261C360.715 555.795 369.568 557.368 378.395 558.115C387.102 558.821 395.902 557.408 404.555 558.928C409.448 559.861 414.275 558.315 419.088 557.635C427.462 556.235 435.955 557.315 444.382 556.608C451.222 556.555 458.288 554.528 464.902 557.181C471.902 559.781 479.235 557.395 486.368 557.021C491.608 556.795 495.928 560.581 501.035 561.048C505.875 559.848 510.542 557.995 515.408 556.848C520.942 555.541 526.008 552.475 531.715 551.915C539.888 552.008 547.435 555.608 555.208 557.701C559.635 558.768 563.542 561.208 567.835 562.661C572.502 562.648 577.528 561.581 581.395 558.835C585.368 554.408 583.635 547.861 583.955 542.448C585.088 544.008 585.115 547.341 587.488 547.461C591.902 542.981 593.568 536.701 593.502 530.555C595.115 521.261 594.222 511.795 595.942 502.528C595.822 492.848 596.502 483.101 595.502 473.475C593.742 465.008 595.782 456.195 593.182 447.861C592.062 443.475 589.008 438.768 583.982 438.888C583.915 436.155 583.888 433.421 583.768 430.701L582.555 430.235C570.835 429.728 559.102 430.128 547.382 430.141L546.048 430.035C548.555 428.301 551.155 426.701 553.728 425.061C551.488 423.648 549.182 421.861 546.368 422.128C541.875 422.768 537.688 424.941 533.088 424.928C522.635 425.581 512.715 421.461 502.355 420.928C496.688 420.288 488.982 421.168 486.462 414.675C493.328 407.581 503.928 408.035 513.008 407.675C522.888 406.088 532.955 406.328 542.822 404.608C551.742 403.408 560.848 405.381 569.715 403.435C576.528 402.061 583.488 403.688 590.328 402.621C602.035 400.075 614.288 403.475 625.808 399.541C628.995 395.061 633.808 392.261 637.675 388.488C657.022 369.155 676.262 349.715 695.755 330.555C700.848 327.568 704.795 321.941 710.968 321.355C712.542 326.741 716.262 331.235 717.342 336.795C718.248 341.195 720.395 345.261 723.288 348.688C720.768 349.515 717.675 349.941 716.408 352.621C713.862 356.088 714.648 360.501 715.195 364.448C716.555 364.448 717.928 364.448 719.302 364.395C721.128 368.181 723.475 371.781 724.782 375.795C723.595 378.328 721.382 380.181 719.568 382.248C718.382 380.821 717.088 379.515 715.755 378.248C714.342 382.741 711.995 386.995 711.515 391.741C711.888 395.568 714.355 398.621 716.822 401.381C718.795 403.141 717.648 405.995 717.675 408.261C706.528 421.915 694.622 434.915 682.795 447.955C682.968 448.395 683.328 449.248 683.502 449.675C686.368 454.888 690.315 459.435 694.302 463.808C706.728 481.021 720.382 497.355 733.262 514.248C746.008 530.381 758.888 546.421 771.782 562.448C775.275 566.781 780.222 571.048 779.968 577.141C779.528 584.461 776.035 591.088 773.755 597.928C761.355 632.008 747.635 665.595 735.568 699.781C725.888 723.648 717.688 748.075 707.648 771.795C704.075 781.915 693.422 786.288 685.222 791.981C672.195 801.368 658.075 809.115 644.982 818.408C626.302 830.275 607.542 842.048 589.688 855.141C577.515 864.768 565.382 874.475 552.795 883.555C512.848 909.501 472.115 934.275 430.448 957.368C424.422 960.728 418.528 965.008 411.648 966.341C402.795 965.648 395.755 959.395 388.115 955.488C380.155 951.595 372.888 946.515 365.155 942.235C340.528 928.461 316.488 913.688 292.222 899.301C282.488 893.008 272.288 887.435 262.928 880.581C251.462 872.101 240.182 863.355 228.955 854.555C219.648 846.808 209.875 839.568 199.462 833.355C187.675 826.141 176.635 817.808 164.755 810.768C150.728 801.181 136.222 792.315 122.328 782.555C117.608 779.355 115.262 773.955 113.275 768.821C101.555 740.981 90.6349 712.781 80.2483 684.408C67.2216 649.635 53.6083 615.088 40.5416 580.341C39.3949 577.021 40.5149 573.381 42.6349 570.728C45.8483 566.035 49.9683 562.088 53.4616 557.635C59.6349 548.808 67.4216 541.261 73.6883 532.501C94.3016 506.008 115.835 480.221 135.768 453.208C136.768 451.515 138.462 450.008 138.635 447.968C113.422 419.248 88.3416 390.341 63.5149 361.261C59.7149 355.915 53.8749 351.701 52.1283 345.141C55.2349 333.768 61.4349 323.555 65.9549 312.728C74.2749 294.448 82.3683 276.075 91.3549 258.101C97.9283 242.821 105.675 228.088 113.088 213.208C119.008 199.421 125.995 186.141 132.768 172.768C137.982 162.381 148.275 156.275 156.995 149.168C186.302 124.701 217.248 102.141 246.408 77.4881C253.968 70.6214 262.755 65.2747 270.515 58.6481C280.808 50.1947 291.688 42.4881 302.115 34.2081ZM240.462 105.901C211.982 133.861 182.875 161.301 156.715 191.488C152.235 194.968 151.648 200.781 149.862 205.768C143.435 224.701 136.048 243.288 128.528 261.795C122.755 278.101 115.062 293.741 110.355 310.381C115.515 316.768 121.915 322.048 127.008 328.515C149.742 351.555 172.728 374.355 195.435 397.421C196.835 398.795 198.422 400.235 200.488 400.421C206.888 401.155 213.355 400.568 219.768 401.115C233.022 402.808 246.448 401.915 259.728 403.461C274.328 404.448 288.995 403.968 303.608 404.341C308.235 404.995 313.128 406.448 317.342 403.515C321.168 404.755 325.062 405.848 329.062 406.341C327.155 403.075 323.022 402.541 319.888 400.981C308.595 396.888 297.475 392.368 286.355 387.861C264.262 380.048 242.635 370.995 220.675 362.835C211.902 350.915 202.115 339.541 193.315 327.541C184.875 317.128 177.662 305.768 168.928 295.568C171.368 285.688 172.902 275.581 173.782 265.448C176.008 258.688 176.235 251.501 178.088 244.635C182.488 226.955 184.782 208.821 188.168 190.941C195.355 179.995 202.608 168.995 209.782 157.995C218.515 146.075 226.622 133.728 234.582 121.288C240.048 113.275 246.555 105.728 250.422 96.7947C245.835 98.1147 243.928 103.008 240.462 105.901ZM181.422 423.088C176.155 427.835 173.928 434.888 169.795 440.515C163.888 450.848 155.702 459.621 150.022 470.101C140.755 483.461 131.595 496.915 122.195 510.181C119.502 516.435 113.022 520.621 111.808 527.475C121.902 524.995 132.275 523.715 142.275 520.808C149.915 518.995 157.688 517.861 165.275 515.795C177.688 513.781 189.782 509.861 202.315 508.621C202.142 508.275 201.795 507.555 201.622 507.195C187.848 503.448 174.022 499.648 159.995 497.008C158.395 496.315 158.142 495.315 159.248 494.021C174.275 473.875 188.195 452.928 203.795 433.221C208.102 427.221 215.675 425.875 222.102 423.288C231.955 419.288 242.142 416.128 252.502 413.755C254.048 413.328 255.702 413.048 257.048 412.115C231.475 412.621 206.595 419.275 181.422 423.088ZM559.782 411.701C559.035 414.021 561.982 414.861 563.702 414.821C568.222 415.168 572.675 416.155 577.062 417.301C587.648 421.115 598.742 423.421 609.115 427.888C616.168 429.835 620.048 436.488 624.235 441.915C631.448 451.608 638.955 461.115 645.622 471.208C651.822 479.901 658.702 488.088 664.782 496.875C647.982 496.928 631.622 501.808 615.302 505.301C619.182 508.608 625.382 507.421 630.022 509.648C649.835 513.675 669.635 518.261 689.502 522.301C696.995 523.941 704.408 526.648 712.142 526.768C710.995 521.768 706.448 518.541 704.275 513.981C697.155 504.635 690.355 495.048 683.235 485.688C677.128 477.088 671.782 467.955 665.342 459.595C658.315 448.888 650.315 438.808 643.942 427.675C642.248 424.915 640.102 422.101 637.035 420.861C633.688 420.541 630.302 420.981 626.995 420.328C607.155 415.888 586.955 413.275 566.702 412.488C564.408 412.128 562.128 411.195 559.782 411.701ZM185.622 543.168C171.955 550.248 157.528 555.688 143.822 562.701C131.395 568.515 118.795 573.928 106.475 579.928C101.502 582.381 95.9683 583.875 91.5549 587.341C91.9816 594.021 93.9949 600.461 95.2883 607.008C101.848 633.088 107.768 659.301 114.195 685.408C118.995 706.848 127.502 727.221 136.422 747.221C138.155 751.128 139.622 755.235 142.315 758.621C142.808 750.981 141.075 743.448 141.048 735.821C139.942 720.595 141.102 705.315 140.395 690.075C140.608 682.621 142.035 675.275 142.142 667.808C142.822 653.208 144.822 638.715 145.195 624.088C147.022 620.435 145.515 616.088 147.022 612.301C150.995 608.315 155.782 605.181 159.595 601.008C165.875 594.181 174.128 589.341 179.635 581.808C188.982 573.128 198.648 564.808 208.515 556.728L208.728 555.875C204.968 550.168 201.155 544.075 195.568 539.995L195.755 538.848C192.048 539.395 188.915 541.568 185.622 543.168ZM620.688 546.088C618.168 549.608 614.528 552.488 613.155 556.701C632.742 573.101 650.915 591.141 669.822 608.328C671.635 610.141 674.382 611.661 674.368 614.568C677.488 641.888 678.982 669.315 681.422 696.715C680.235 702.595 681.488 708.568 681.408 714.515C682.048 730.195 680.675 745.835 678.582 761.355C679.955 760.488 681.022 759.235 681.715 757.768C694.435 734.568 702.982 709.261 708.968 683.541C710.182 676.235 712.902 669.315 714.182 662.035C719.795 640.461 723.608 618.515 729.115 596.941C729.142 593.048 733.648 586.168 727.795 584.795C717.675 582.141 709.182 575.621 699.342 572.208C676.115 561.661 653.262 550.261 629.995 539.901L629.888 538.381C625.368 538.661 623.368 543.128 620.688 546.088ZM321.128 578.301C326.742 577.541 332.462 575.995 338.128 577.341C341.608 578.235 345.208 577.995 348.728 577.501C348.955 578.261 349.422 579.795 349.648 580.555C350.462 580.755 352.088 581.168 352.902 581.381C353.128 582.955 353.355 584.528 353.555 586.115C356.915 585.981 360.288 586.021 363.635 586.515C363.848 588.061 364.088 589.608 364.342 591.155C364.968 591.661 366.222 592.675 366.848 593.195C364.915 595.248 363.048 597.368 361.235 599.528C362.475 599.261 363.742 598.995 364.995 598.728C366.822 601.568 368.835 604.448 369.462 607.848C368.915 613.421 366.395 618.675 362.702 622.848C354.822 632.355 347.262 642.101 339.448 651.648C336.115 656.288 331.355 659.715 328.328 664.608C327.662 664.621 326.328 664.648 325.662 664.648C321.875 658.395 318.235 651.941 316.168 644.875C314.555 639.155 311.542 633.888 310.408 628.021C309.288 623.235 308.582 618.368 307.422 613.608C306.155 608.635 307.608 603.315 305.608 598.488C306.342 595.795 306.822 593.035 306.475 590.261C303.662 592.075 303.542 595.741 302.408 598.595C292.142 629.648 293.715 664.315 306.355 694.435C313.555 710.168 321.222 725.901 331.568 739.821C341.822 754.275 353.088 768.048 365.688 780.515C377.622 790.781 389.422 801.475 403.088 809.368C404.195 811.355 408.075 811.475 410.382 812.008C419.808 810.128 428.342 804.861 435.595 798.715C441.835 794.741 447.182 789.541 453.275 785.355C461.515 779.488 467.955 771.555 475.728 765.128C485.648 756.301 493.302 745.355 501.568 735.061C518.408 710.568 530.422 681.528 530.342 651.435C531.315 646.741 530.768 641.848 530.768 637.088C528.968 625.515 526.755 613.861 521.862 603.141C519.315 598.568 516.528 594.141 514.022 589.555C509.648 582.835 501.475 580.661 494.262 578.488C485.262 575.515 475.822 573.421 466.288 574.141C442.022 577.581 417.555 579.781 393.048 579.395C375.608 579.648 358.422 576.288 341.102 574.915C334.408 574.595 326.875 574.301 321.128 578.301ZM240.328 584.381C228.902 598.781 217.328 613.101 206.582 628.008C197.582 638.221 190.035 649.581 181.275 659.995C180.008 661.488 178.928 663.155 178.208 664.995C182.648 678.955 187.768 692.688 193.288 706.261C208.128 745.901 224.408 785.048 243.315 822.901C247.968 829.248 254.222 834.208 259.568 839.955C266.022 845.008 271.395 851.261 277.942 856.208C285.155 862.928 292.728 869.661 301.648 873.995C303.595 876.421 305.968 878.515 308.768 879.968C305.142 871.488 299.795 863.875 295.968 855.488C284.475 833.195 275.568 809.701 266.448 786.381C254.755 752.995 243.368 719.061 239.382 683.781C245.622 655.328 255.795 627.928 265.675 600.581C266.062 599.061 266.915 596.728 264.968 595.888C258.968 592.088 252.808 588.541 246.782 584.768C244.875 583.688 241.808 581.595 240.328 584.381ZM580.542 583.768C572.248 586.915 564.448 591.275 557.008 596.061C558.155 601.381 561.075 606.048 563.115 611.035C570.515 628.301 577.848 645.608 584.248 663.275C585.755 669.155 588.568 675.288 586.728 681.435C576.435 723.461 562.342 764.501 545.648 804.381C534.088 831.368 520.555 857.501 505.328 882.581C509.422 880.261 512.462 876.555 516.408 874.021L516.768 873.128C521.088 873.288 523.888 869.515 527.195 867.355C543.022 854.848 559.555 842.995 573.342 828.155C577.075 821.181 579.808 813.635 584.222 806.995C588.942 795.528 595.328 784.848 600.048 773.381C615.942 740.168 630.355 706.261 644.195 672.141C645.102 670.301 645.222 668.248 645.022 666.261C646.288 665.261 646.222 663.435 645.075 662.421C636.782 651.981 629.315 640.901 620.902 630.555C608.368 614.648 596.782 597.995 583.568 582.635C582.808 582.915 581.302 583.488 580.542 583.768ZM651.155 708.381C646.555 722.021 640.808 735.195 635.262 748.448C633.115 754.381 628.862 759.261 626.742 765.208C628.782 764.435 630.582 763.141 631.742 761.275C641.355 748.395 654.462 737.781 660.662 722.581C657.502 716.195 659.302 708.528 655.448 702.515C653.488 704.021 651.835 705.968 651.155 708.381Z" fill="#221A3B" stroke="#221A3B" stroke-width="0.125"/>
<path d="M569.315 93.288C570.608 93.9547 571.955 94.648 572.955 95.7814C587.262 110.861 603.115 124.355 617.502 139.368C631.182 153.248 644.502 167.448 658.182 181.328C663.102 186.301 668.915 191.008 670.835 198.061C680.462 220.968 690.115 243.875 699.088 267.061C705.102 281.261 711.702 295.368 715.448 310.368C710.262 309.861 705.635 307.355 701.008 305.181C692.942 301.235 684.862 297.288 677.048 292.848C673.888 293.435 672.928 296.955 671.115 299.155C658.182 316.848 645.128 334.435 631.448 351.568C625.915 357.368 621.355 363.981 616.942 370.648C599.168 374.688 582.022 380.955 564.528 385.981C554.528 389.448 544.168 391.741 534.222 395.381C518.568 400.341 502.808 405.595 486.462 407.635C487.435 406.928 488.515 406.381 489.675 406.021C505.822 401.035 521.088 393.675 536.835 387.581C551.835 381.408 567.142 376.075 582.355 370.475C589.168 367.408 596.862 366.115 603.088 361.848C620.435 340.515 637.942 319.275 654.635 297.408C658.275 294.261 656.088 289.275 655.675 285.275C652.382 270.061 649.688 254.675 645.328 239.755C644.395 233.408 641.622 227.528 640.955 221.141C640.128 212.995 636.302 205.541 635.622 197.355C635.022 192.355 636.288 186.688 633.102 182.368C626.275 171.915 618.715 161.955 611.995 151.421C601.328 137.608 592.168 122.675 581.022 109.235C577.302 103.795 571.768 99.488 569.315 93.288Z" fill="#C579F2" stroke="#C579F2" stroke-width="0.125"/>
<path d="M240.462 105.901C243.928 103.008 245.835 98.1146 250.422 96.7946C246.555 105.728 240.048 113.275 234.582 121.288C226.622 133.728 218.515 146.075 209.782 157.995C202.608 168.995 195.355 179.995 188.168 190.941C184.782 208.821 182.488 226.955 178.088 244.635C176.235 251.501 176.008 258.688 173.782 265.448C172.902 275.581 171.368 285.688 168.928 295.568C163.502 300.648 156.542 295.248 153.315 290.328C153.128 290.888 152.755 291.995 152.568 292.555C145.662 294.208 140.275 299.128 133.808 301.821C126.462 305.848 118.675 309.075 110.355 310.381C115.062 293.741 122.755 278.101 128.528 261.795C136.048 243.288 143.435 224.701 149.862 205.768C151.648 200.781 152.235 194.968 156.715 191.488C182.875 161.301 211.982 133.861 240.462 105.901Z" fill="#6130AD" stroke="#6130AD" stroke-width="0.125"/>
<path d="M581.022 109.235C592.168 122.675 601.328 137.608 611.995 151.421C618.715 161.955 626.275 171.915 633.102 182.368C636.288 186.688 635.022 192.355 635.622 197.355C633.835 195.155 635.408 191.955 633.995 189.595C630.888 183.955 626.955 178.835 623.075 173.728C616.022 164.901 611.648 154.328 605.022 145.208C599.248 137.528 593.702 129.675 588.648 121.515C586.222 117.341 582.395 113.981 581.022 109.235Z" fill="#6130AD" stroke="#6130AD" stroke-width="0.125"/>
<path d="M421.168 158.635C427.115 159.595 431.928 163.461 436.888 166.555C453.742 176.861 470.888 187.128 485.128 200.995C503.848 218.021 519.662 237.915 534.755 258.168C544.928 270.821 553.582 284.595 563.182 297.688C564.835 300.115 566.795 302.435 567.728 305.275C567.835 306.008 568.062 307.475 568.182 308.195C562.462 308.421 556.742 308.341 551.035 308.341C539.768 324.968 528.368 341.501 517.235 358.208C514.902 362.128 511.822 365.728 507.795 367.981C501.742 371.288 495.848 374.888 489.568 377.768C485.355 379.608 481.688 382.755 477.102 383.621C479.048 379.301 483.582 376.941 486.182 373.021C494.115 364.408 500.822 354.808 508.328 345.848C516.488 335.555 523.662 324.501 531.928 314.301C532.608 313.515 533.288 312.741 533.968 311.955C531.048 306.221 529.568 299.901 526.448 294.275C518.222 278.741 511.542 262.155 500.982 248.021C495.128 241.955 492.328 233.768 486.542 227.755C482.622 221.181 477.608 215.395 472.662 209.621C467.448 201.635 460.448 195.128 453.808 188.368C443.555 177.795 433.182 167.235 421.168 158.635Z" fill="#C579F2" stroke="#C579F2" stroke-width="0.125"/>
<path d="M379.475 168.968C384.955 166.075 389.728 161.875 395.675 159.861C392.075 163.835 387.622 166.875 383.835 170.635C376.248 178.195 368.742 185.821 361.022 193.235C348.555 204.955 339.008 219.248 328.288 232.475C325.142 236.648 322.755 241.355 319.395 245.368C316.275 245.675 317.075 242.088 316.382 240.115C315.982 235.701 311.062 234.195 308.248 231.555C316.262 222.075 324.622 212.901 333.355 204.061C341.128 197.675 348.102 190.301 356.288 184.395C363.808 178.955 371.315 173.435 379.475 168.968Z" fill="#C579F2" stroke="#C579F2" stroke-width="0.125"/>
<path d="M224.168 197.608C231.048 186.275 234.902 173.381 242.155 162.248C241.635 165.781 240.675 169.315 240.968 172.901C242.302 175.875 246.155 176.781 247.728 179.688C250.115 183.995 253.768 187.648 254.982 192.555C255.968 196.448 258.968 199.275 260.835 202.701C261.302 206.235 255.035 207.728 257.142 211.235C246.048 218.875 233.915 224.875 222.488 231.981C215.968 235.448 210.155 240.208 203.262 242.955C209.195 227.395 217.302 212.768 224.168 197.608Z" fill="#6130AD" stroke="#6130AD" stroke-width="0.125"/>
<path d="M328.288 232.475C339.008 219.248 348.555 204.955 361.022 193.235C360.208 200.115 353.568 203.528 349.982 208.821C338.248 224.301 325.862 239.461 316.355 256.461C307.582 271.288 299.902 286.728 292.942 302.475C291.155 306.261 288.555 309.928 288.662 314.315C288.235 313.848 287.395 312.941 286.968 312.488C281.595 312.875 277.168 309.608 272.235 308.248C272.048 308.715 271.702 309.648 271.528 310.128C265.728 306.795 258.688 308.408 252.395 308.888C254.475 304.048 258.035 300.101 260.955 295.781C270.342 281.728 279.675 267.635 290.048 254.288C295.728 246.421 301.302 238.368 308.248 231.555C311.062 234.195 315.982 235.701 316.382 240.115C317.075 242.088 316.275 245.675 319.395 245.368C322.755 241.355 325.142 236.648 328.288 232.475Z" fill="#6130AD" stroke="#6130AD" stroke-width="0.125"/>
<path d="M500.982 248.021C511.542 262.155 518.222 278.741 526.448 294.275C529.568 299.901 531.048 306.221 533.968 311.955C533.288 312.741 532.608 313.515 531.928 314.301C526.662 302.928 523.115 290.821 517.088 279.808C514.662 275.075 512.408 270.248 510.075 265.475C507.195 259.568 503.022 254.328 500.982 248.021Z" fill="#6130AD" stroke="#6130AD" stroke-width="0.125"/>
<path d="M153.315 290.328C156.542 295.248 163.502 300.648 168.928 295.568C177.662 305.768 184.875 317.128 193.315 327.541C202.115 339.541 211.902 350.915 220.675 362.835C242.635 370.995 264.262 380.048 286.355 387.861C297.475 392.368 308.595 396.888 319.888 400.981C323.022 402.541 327.155 403.075 329.062 406.341C325.062 405.848 321.168 404.755 317.342 403.515C306.395 399.795 295.088 397.275 283.955 394.128C268.355 389.341 252.582 385.075 237.222 379.555C229.608 376.795 221.688 374.995 214.102 372.168C210.595 371.101 208.502 367.941 206.342 365.235C188.008 341.315 169.582 317.448 152.568 292.555C152.755 291.995 153.128 290.888 153.315 290.328Z" fill="#C579F2" stroke="#C579F2" stroke-width="0.125"/>
<path d="M133.808 301.821C140.275 299.128 145.662 294.208 152.568 292.555C169.582 317.448 188.008 341.315 206.342 365.235C208.502 367.941 210.595 371.101 214.102 372.168C221.688 374.995 229.608 376.795 237.222 379.555C252.582 385.075 268.355 389.341 283.955 394.128C295.088 397.275 306.395 399.795 317.342 403.515C313.128 406.448 308.235 404.995 303.608 404.341C288.995 403.968 274.328 404.448 259.728 403.461C246.448 401.915 233.022 402.808 219.768 401.115C213.355 400.568 206.888 401.155 200.488 400.421C198.422 400.235 196.835 398.795 195.435 397.421C172.728 374.355 149.742 351.555 127.008 328.515C121.915 322.048 115.515 316.768 110.355 310.381C118.675 309.075 126.462 305.848 133.808 301.821Z" fill="#382D5B" stroke="#382D5B" stroke-width="0.125"/>
<path d="M567.728 305.275C569.235 305.941 571.355 306.901 570.302 308.968C560.955 323.795 549.022 336.755 538.715 350.901C536.022 353.701 534.635 357.955 530.902 359.568C528.688 362.755 525.822 365.381 522.275 367.021C519.102 365.128 517.622 361.755 517.235 358.208C528.368 341.501 539.768 324.968 551.035 308.341C556.742 308.341 562.462 308.421 568.182 308.195C568.062 307.475 567.835 306.008 567.728 305.275Z" fill="#6130AD" stroke="#6130AD" stroke-width="0.125"/>
<path d="M252.395 308.888C258.688 308.408 265.728 306.795 271.528 310.128C277.262 317.928 282.488 326.088 288.528 333.661C296.675 344.501 302.755 357.301 313.768 365.675C320.208 369.728 327.422 372.355 333.968 376.221C336.355 377.421 338.728 379.608 341.608 378.701C344.275 380.048 345.675 382.661 346.475 385.448C340.315 383.048 333.928 381.275 327.955 378.435C320.488 374.888 312.022 375.168 304.222 372.768C300.088 371.395 294.982 371.075 292.475 366.995C282.848 354.355 273.728 341.315 264.382 328.461C260.022 322.181 254.795 316.288 252.395 308.888Z" fill="#382D5B" stroke="#382D5B" stroke-width="0.125"/>
<path d="M272.235 308.248C277.168 309.608 281.595 312.875 286.968 312.488C287.395 312.941 288.235 313.848 288.662 314.315C298.462 327.261 308.288 340.221 318.902 352.541C326.195 361.475 333.302 370.675 341.608 378.701C338.728 379.608 336.355 377.421 333.968 376.221C327.422 372.355 320.208 369.728 313.768 365.675C302.755 357.301 296.675 344.501 288.528 333.661C282.488 326.088 277.262 317.928 271.528 310.128C271.702 309.648 272.048 308.715 272.235 308.248Z" fill="#C579F2" stroke="#C579F2" stroke-width="0.125"/>
<path d="M430.488 309.301C443.675 316.075 453.862 327.435 464.142 337.915C463.915 339.875 463.982 341.848 464.075 343.821C457.888 345.835 451.675 347.968 445.248 348.981C444.008 347.968 443.368 346.475 442.675 345.101C441.262 332.421 435.382 320.901 430.488 309.301Z" fill="#C579F2" stroke="#C579F2" stroke-width="0.125"/>
<path d="M355.915 339.888C365.822 328.928 377.088 319.128 389.048 310.488C385.728 319.955 381.195 328.995 378.555 338.701C377.368 343.115 378.328 347.648 379.182 352.035C379.342 353.715 379.515 355.408 379.675 357.115C378.555 354.715 376.582 352.888 374.142 351.928C368.488 349.488 362.755 347.221 356.902 345.315C356.542 343.515 356.155 341.715 355.915 339.888Z" fill="#C579F2" stroke="#C579F2" stroke-width="0.125"/>
<path d="M464.142 337.915L464.795 336.995C465.195 352.381 457.702 366.448 453.982 381.061C453.275 384.155 452.155 387.115 451.235 390.141C439.582 386.248 428.715 380.261 417.422 375.421C411.755 372.421 405.408 371.048 399.688 368.221C408.168 367.301 416.675 368.008 425.155 368.275C430.195 368.635 433.502 363.861 436.222 360.315C438.888 355.528 442.702 350.835 442.675 345.101C443.368 346.475 444.008 347.968 445.248 348.981C451.675 347.968 457.888 345.835 464.075 343.821C463.982 341.848 463.915 339.875 464.142 337.915Z" fill="#6130AD" stroke="#6130AD" stroke-width="0.125"/>
<path d="M356.902 345.315C362.755 347.221 368.488 349.488 374.142 351.928C376.582 352.888 378.555 354.715 379.675 357.115C379.515 355.408 379.342 353.715 379.182 352.035C382.982 355.848 384.008 361.315 385.768 366.208C381.662 370.448 377.195 374.328 372.728 378.195C370.128 379.741 367.702 381.541 365.315 383.395C362.675 370.661 358.488 358.261 356.902 345.315Z" fill="#6130AD" stroke="#6130AD" stroke-width="0.125"/>
<path d="M564.528 385.981C582.022 380.955 599.168 374.688 616.942 370.648C615.302 374.155 611.248 376.048 610.808 380.275C607.275 381.875 603.688 383.715 601.822 387.315C601.048 389.448 598.888 388.621 597.208 388.501C594.422 391.035 591.728 394.461 587.622 394.501C584.275 394.581 581.208 395.795 578.155 397.008C572.608 398.061 566.888 396.701 561.328 397.635C555.182 398.928 548.822 398.915 542.608 398.368C539.982 396.915 537.395 395.128 534.222 395.381C544.168 391.741 554.528 389.448 564.528 385.981Z" fill="#6130AD" stroke="#6130AD" stroke-width="0.125"/>
<path d="M717.675 408.261C727.248 397.421 736.822 386.568 745.968 375.368C746.502 378.008 744.515 379.968 743.048 381.875C738.168 387.635 733.488 393.581 728.195 398.981C719.182 411.168 708.742 422.181 698.928 433.715C693.382 438.648 689.435 445.128 683.502 449.675C683.328 449.248 682.968 448.395 682.795 447.955C694.622 434.915 706.528 421.915 717.675 408.261Z" fill="#C579F2" stroke="#C579F2" stroke-width="0.125"/>
<path d="M181.422 423.088C206.595 419.275 231.475 412.621 257.048 412.115C255.702 413.048 254.048 413.328 252.502 413.755C242.142 416.128 231.955 419.288 222.102 423.288C215.675 425.875 208.102 427.221 203.795 433.221C188.195 452.928 174.275 473.875 159.248 494.021C158.142 495.315 158.395 496.315 159.995 497.008C174.022 499.648 187.848 503.448 201.622 507.195C201.795 507.555 202.142 508.275 202.315 508.621C189.782 509.861 177.688 513.781 165.275 515.795C157.688 517.861 149.915 518.995 142.275 520.808C132.275 523.715 121.902 524.995 111.808 527.475C113.022 520.621 119.502 516.435 122.195 510.181C131.595 496.915 140.755 483.461 150.022 470.101C155.702 459.621 163.888 450.848 169.795 440.515C173.928 434.888 176.155 427.835 181.422 423.088Z" fill="#382D5B" stroke="#382D5B" stroke-width="0.125"/>
<path d="M559.782 411.701C562.128 411.195 564.408 412.128 566.702 412.488C586.955 413.275 607.155 415.888 626.995 420.328C630.302 420.981 633.688 420.541 637.035 420.861C640.102 422.101 642.248 424.915 643.942 427.675C650.315 438.808 658.315 448.888 665.342 459.595C671.782 467.955 677.128 477.088 683.235 485.688C690.355 495.048 697.155 504.635 704.275 513.981C706.448 518.541 710.995 521.768 712.142 526.768C704.408 526.648 696.995 523.941 689.502 522.301C669.635 518.261 649.835 513.675 630.022 509.648C625.382 507.421 619.182 508.608 615.302 505.301C631.622 501.808 647.982 496.928 664.782 496.875C658.702 488.088 651.822 479.901 645.622 471.208C638.955 461.115 631.448 451.608 624.235 441.915C620.048 436.488 616.168 429.835 609.115 427.888C598.742 423.421 587.648 421.115 577.062 417.301C572.675 416.155 568.222 415.168 563.702 414.821C561.982 414.861 559.035 414.021 559.782 411.701Z" fill="#382D5B" stroke="#382D5B" stroke-width="0.125"/>
<path d="M254.315 432.955C271.542 424.475 291.755 425.008 310.155 428.781C317.435 430.368 325.195 431.955 331.328 436.381C330.835 444.808 327.902 452.861 325.995 461.035C318.608 456.381 310.222 453.555 301.795 451.461C292.515 450.395 282.822 450.061 273.742 452.608C269.048 453.808 266.502 459.848 268.888 463.995C272.955 468.195 278.902 469.688 284.315 471.381C298.555 475.928 314.262 478.128 326.048 488.101C339.755 498.515 341.955 519.941 332.475 533.848C329.168 540.195 322.835 543.981 316.888 547.515C309.622 550.195 302.128 552.555 294.408 553.448C274.022 554.421 252.195 553.515 234.422 542.315C235.902 533.928 237.902 525.635 238.782 517.168C246.728 520.221 254.368 524.155 262.702 526.168C272.968 529.328 283.928 529.541 294.515 528.168C297.715 527.315 301.168 526.101 303.208 523.328C305.662 520.101 305.222 514.795 301.782 512.421C297.328 509.155 291.875 507.741 286.662 506.195C278.995 504.181 271.462 501.688 263.822 499.595C256.675 496.581 249.102 493.648 243.782 487.741C236.942 480.821 234.395 470.635 235.195 461.128C235.835 449.181 243.488 438.035 254.315 432.955Z" fill="#C579F2" stroke="#C579F2" stroke-width="0.125"/>
<path d="M357.688 439.021C365.742 431.315 376.982 428.301 387.755 427.008C398.662 426.501 409.755 426.075 420.488 428.488C428.542 429.648 435.902 433.275 443.395 436.248C443.422 444.395 439.382 451.835 439.102 459.928C427.155 454.728 414.275 450.461 401.048 451.168C394.782 451.355 387.582 450.088 382.435 454.581C379.648 456.581 380.275 460.341 380.168 463.328C385.248 469.115 393.062 470.168 400.008 472.341C414.582 474.941 429.395 479.595 440.835 489.355C448.475 495.755 451.742 506.061 451.008 515.795C451.262 529.061 443.048 541.515 431.182 547.195C423.262 551.861 413.928 552.141 405.062 553.435C396.128 553.981 387.168 553.541 378.275 552.728C373.208 552.341 368.515 550.195 363.542 549.381C357.982 548.475 353.248 545.328 348.102 543.301C348.155 540.848 348.222 538.368 349.115 536.075C351.195 529.995 351.195 523.515 352.075 517.221C366.995 525.261 384.035 529.901 401.062 528.995C405.462 528.915 410.155 528.648 413.782 525.848C418.902 522.915 419.155 513.848 413.555 511.315C396.448 502.661 375.755 502.955 359.835 491.688C342.928 480.115 341.008 451.635 357.688 439.021Z" fill="#C579F2" stroke="#C579F2" stroke-width="0.125"/>
<path d="M466.528 430.328C478.462 430.048 490.408 430.141 502.342 430.261C502.608 445.341 502.208 460.421 502.582 475.488C517.488 475.155 532.408 475.795 547.315 475.488C547.128 460.368 546.955 445.248 547.382 430.141C559.102 430.128 570.835 429.728 582.555 430.235C582.662 446.755 582.475 463.288 582.662 479.821C582.315 503.701 583.195 527.621 582.262 551.488C570.742 551.341 559.208 551.301 547.675 551.488C546.635 534.821 547.302 518.048 547.315 501.328C532.408 500.501 517.435 501.155 502.502 501.235C502.382 517.968 502.475 534.715 502.088 551.448C490.302 551.381 478.515 551.341 466.728 551.475C466.408 511.088 466.368 470.715 466.528 430.328Z" fill="#C579F2" stroke="#C579F2" stroke-width="0.125"/>
<path d="M263.822 499.595C271.462 501.688 278.995 504.181 286.662 506.195C291.875 507.741 297.328 509.155 301.782 512.421C305.222 514.795 305.662 520.101 303.208 523.328C301.168 526.101 297.715 527.315 294.515 528.168C290.915 527.595 286.542 527.901 283.755 525.168C282.382 520.141 281.982 513.461 276.355 511.235C270.968 509.421 263.622 506.328 263.822 499.595Z" fill="#382D5B" stroke="#382D5B" stroke-width="0.125"/>
<path d="M185.622 543.168C188.915 541.568 192.048 539.395 195.755 538.848L195.568 539.995C195.355 541.968 194.728 543.955 192.862 544.955C180.555 553.301 168.528 562.061 156.688 571.048C145.142 579.181 133.595 587.341 122.102 595.555C119.595 597.875 116.488 595.875 113.888 594.888C106.595 591.941 99.1816 589.261 91.5549 587.341C95.9683 583.875 101.502 582.381 106.475 579.928C118.795 573.928 131.395 568.515 143.822 562.701C157.528 555.688 171.955 550.248 185.622 543.168Z" fill="#C579F2" stroke="#C579F2" stroke-width="0.125"/>
<path d="M620.688 546.088C623.368 543.128 625.368 538.661 629.888 538.381L629.995 539.901C629.262 539.835 627.795 539.675 627.062 539.595C627.635 542.061 629.075 544.248 631.035 545.848C643.462 556.795 657.462 565.715 670.808 575.475C678.222 581.021 686.102 585.901 693.662 591.248C697.435 593.541 701.355 597.075 706.115 595.941C703.462 598.875 703.608 603.048 702.915 606.715C700.648 619.875 698.675 633.088 697.142 646.355C693.448 668.488 690.848 690.795 687.782 713.021C686.142 719.368 686.395 726.461 682.782 732.128C681.768 720.341 682.555 708.475 681.422 696.715C678.982 669.315 677.488 641.888 674.368 614.568C674.382 611.661 671.635 610.141 669.822 608.328C650.915 591.141 632.742 573.101 613.155 556.701C614.528 552.488 618.168 549.608 620.688 546.088Z" fill="#6130AD" stroke="#6130AD" stroke-width="0.125"/>
<path d="M195.568 539.995C201.155 544.075 204.968 550.168 208.728 555.875L208.515 556.728C198.648 564.808 188.982 573.128 179.635 581.808C178.328 581.195 177.702 579.968 177.222 578.715C170.382 575.955 161.902 577.181 156.688 571.048C168.528 562.061 180.555 553.301 192.862 544.955C194.728 543.955 195.355 541.968 195.568 539.995Z" fill="#6130AD" stroke="#6130AD" stroke-width="0.125"/>
<path d="M627.062 539.595C627.795 539.675 629.262 539.835 629.995 539.901C653.262 550.261 676.115 561.661 699.342 572.208C709.182 575.621 717.675 582.141 727.795 584.795C728.128 585.555 728.782 587.061 729.102 587.808C721.435 590.515 713.862 593.475 706.115 595.941C701.355 597.075 697.435 593.541 693.662 591.248C686.102 585.901 678.222 581.021 670.808 575.475C657.462 565.715 643.462 556.795 631.035 545.848C629.075 544.248 627.635 542.061 627.062 539.595Z" fill="#C579F2" stroke="#C579F2" stroke-width="0.125"/>
<path d="M122.102 595.555C133.595 587.341 145.142 579.181 156.688 571.048C161.902 577.181 170.382 575.955 177.222 578.715C177.702 579.968 178.328 581.195 179.635 581.808C174.128 589.341 165.875 594.181 159.595 601.008C155.782 605.181 150.995 608.315 147.022 612.301C145.515 616.088 147.022 620.435 145.195 624.088C145.195 620.488 145.435 616.861 145.142 613.275C144.422 610.528 141.502 609.435 139.328 608.075C133.488 605.128 127.968 600.555 121.075 600.781C121.115 604.981 121.422 609.181 122.128 613.341C125.742 636.568 128.648 659.888 131.195 683.261C133.222 695.488 134.728 707.808 136.915 720.021C137.528 724.048 137.582 728.221 139.262 732.008C139.528 718.035 138.528 703.968 140.395 690.075C141.102 705.315 139.942 720.595 141.048 735.821C141.075 743.448 142.808 750.981 142.315 758.621C139.622 755.235 138.155 751.128 136.422 747.221C127.502 727.221 118.995 706.848 114.195 685.408C107.768 659.301 101.848 633.088 95.2883 607.008C93.9949 600.461 91.9816 594.021 91.5549 587.341C99.1816 589.261 106.595 591.941 113.888 594.888C116.488 595.875 119.595 597.875 122.102 595.555Z" fill="#382D5B" stroke="#382D5B" stroke-width="0.125"/>
<path d="M321.128 578.301C326.875 574.301 334.408 574.595 341.102 574.915C358.422 576.288 375.608 579.648 393.048 579.395C417.555 579.781 442.022 577.581 466.288 574.141C475.822 573.421 485.262 575.515 494.262 578.488C501.475 580.661 509.648 582.835 514.022 589.555C516.528 594.141 519.315 598.568 521.862 603.141C526.755 613.861 528.968 625.515 530.768 637.088C530.768 641.848 531.315 646.741 530.342 651.435C525.142 660.768 523.808 671.555 519.848 681.355C514.835 686.141 511.355 692.661 504.928 695.768C500.035 699.261 495.955 703.901 492.875 709.061C489.715 714.635 483.662 717.608 480.102 722.875C477.755 726.768 473.315 728.568 470.688 732.208C465.555 738.661 460.182 745.008 456.035 752.181C453.115 756.701 455.582 762.755 452.235 767.075C445.142 777.128 440.835 789.448 431.235 797.555C432.675 797.955 434.128 798.341 435.595 798.715C428.342 804.861 419.808 810.128 410.382 812.008C408.075 811.475 404.195 811.355 403.088 809.368C403.715 806.488 401.035 804.675 399.488 802.701C381.555 780.981 365.808 757.555 351.315 733.421C349.422 730.555 348.435 726.821 345.182 725.141C344.982 728.755 347.808 733.675 344.142 736.275C340.875 738.821 336.582 737.048 333.008 736.315C332.528 737.475 332.048 738.648 331.568 739.821C321.222 725.901 313.555 710.168 306.355 694.435C293.715 664.315 292.142 629.648 302.408 598.595C303.542 595.741 303.662 592.075 306.475 590.261C306.822 593.035 306.342 595.795 305.608 598.488C307.608 603.315 306.155 608.635 307.422 613.608C308.582 618.368 309.288 623.235 310.408 628.021C311.542 633.888 314.555 639.155 316.168 644.875C318.235 651.941 321.875 658.395 325.662 664.648C326.328 664.648 327.662 664.621 328.328 664.608C331.355 659.715 336.115 656.288 339.448 651.648C347.262 642.101 354.822 632.355 362.702 622.848C366.395 618.675 368.915 613.421 369.462 607.848C368.835 604.448 366.822 601.568 364.995 598.728C363.742 598.995 362.475 599.261 361.235 599.528C363.048 597.368 364.915 595.248 366.848 593.195C366.222 592.675 364.968 591.661 364.342 591.155C364.088 589.608 363.848 588.061 363.635 586.515C360.288 586.021 356.915 585.981 353.555 586.115C353.355 584.528 353.128 582.955 352.902 581.381C352.088 581.168 350.462 580.755 349.648 580.555C349.422 579.795 348.955 578.261 348.728 577.501C345.208 577.995 341.608 578.235 338.128 577.341C332.462 575.995 326.742 577.541 321.128 578.301Z" fill="#382D5B" stroke="#382D5B" stroke-width="0.125"/>
<path d="M240.328 584.381C241.808 581.595 244.875 583.688 246.782 584.768C252.808 588.541 258.968 592.088 264.968 595.888C266.915 596.728 266.062 599.061 265.675 600.581C255.795 627.928 245.622 655.328 239.382 683.781C243.368 719.061 254.755 752.995 266.448 786.381C275.568 809.701 284.475 833.195 295.968 855.488C299.795 863.875 305.142 871.488 308.768 879.968C305.968 878.515 303.595 876.421 301.648 873.995C289.822 858.795 279.275 842.648 269.395 826.155C249.355 795.915 238.435 761.101 225.195 727.648C220.235 713.821 214.968 700.061 211.062 685.888C210.248 683.395 209.515 680.435 206.888 679.261C197.462 674.235 188.315 668.581 178.208 664.995C178.928 663.155 180.008 661.488 181.275 659.995C190.035 649.581 197.582 638.221 206.582 628.008C217.328 613.101 228.902 598.781 240.328 584.381Z" fill="#6130AD" stroke="#6130AD" stroke-width="0.125"/>
<path d="M580.542 583.768C581.302 583.488 582.808 582.915 583.568 582.635C596.782 597.995 608.368 614.648 620.902 630.555C629.315 640.901 636.782 651.981 645.075 662.421C646.222 663.435 646.288 665.261 645.022 666.261C635.302 669.795 625.822 674.048 616.582 678.688C614.222 673.181 613.995 667.021 611.515 661.541C605.942 647.648 600.942 633.501 594.182 620.128C591.048 613.381 588.715 606.288 585.235 599.688C582.902 594.661 578.982 589.635 580.542 583.768Z" fill="#C579F2" stroke="#C579F2" stroke-width="0.125"/>
<path d="M557.008 596.061C564.448 591.275 572.248 586.915 580.542 583.768C578.982 589.635 582.902 594.661 585.235 599.688C588.715 606.288 591.048 613.381 594.182 620.128C600.942 633.501 605.942 647.648 611.515 661.541C613.995 667.021 614.222 673.181 616.582 678.688C614.102 682.901 612.555 687.568 610.768 692.101C592.742 735.035 578.195 779.701 554.502 820.008C545.835 834.581 536.222 848.581 525.755 861.915C522.795 865.688 518.155 868.275 516.768 873.128L516.408 874.021C512.462 876.555 509.422 880.261 505.328 882.581C520.555 857.501 534.088 831.368 545.648 804.381C562.342 764.501 576.435 723.461 586.728 681.435C588.568 675.288 585.755 669.155 584.248 663.275C577.848 645.608 570.515 628.301 563.115 611.035C561.075 606.048 558.155 601.381 557.008 596.061Z" fill="#6130AD" stroke="#6130AD" stroke-width="0.125"/>
<path d="M727.795 584.795C733.648 586.168 729.142 593.048 729.115 596.941C723.608 618.515 719.795 640.461 714.182 662.035C712.902 669.315 710.182 676.235 708.968 683.541C702.982 709.261 694.435 734.568 681.715 757.768C681.022 759.235 679.955 760.488 678.582 761.355C680.675 745.835 682.048 730.195 681.408 714.515C681.488 708.568 680.235 702.595 681.422 696.715C682.555 708.475 681.768 720.341 682.782 732.128C686.395 726.461 686.142 719.368 687.782 713.021C690.848 690.795 693.448 668.488 697.142 646.355C698.675 633.088 700.648 619.875 702.915 606.715C703.608 603.048 703.462 598.875 706.115 595.941C713.862 593.475 721.435 590.515 729.102 587.808C728.782 587.061 728.128 585.555 727.795 584.795Z" fill="#382D5B" stroke="#382D5B" stroke-width="0.125"/>
<path d="M121.075 600.781C127.968 600.555 133.488 605.128 139.328 608.075C141.502 609.435 144.422 610.528 145.142 613.275C145.435 616.861 145.195 620.488 145.195 624.088C144.822 638.715 142.822 653.208 142.142 667.808C142.035 675.275 140.608 682.621 140.395 690.075C138.528 703.968 139.528 718.035 139.262 732.008C137.582 728.221 137.528 724.048 136.915 720.021C134.728 707.808 133.222 695.488 131.195 683.261C128.648 659.888 125.742 636.568 122.128 613.341C121.422 609.181 121.115 604.981 121.075 600.781Z" fill="#6130AD" stroke="#6130AD" stroke-width="0.125"/>
<path d="M519.848 681.355C523.808 671.555 525.142 660.768 530.342 651.435C530.422 681.528 518.408 710.568 501.568 735.061C493.302 745.355 485.648 756.301 475.728 765.128C467.955 771.555 461.515 779.488 453.275 785.355C447.182 789.541 441.835 794.741 435.595 798.715C434.128 798.341 432.675 797.955 431.235 797.555C440.835 789.448 445.142 777.128 452.235 767.075C455.582 762.755 453.115 756.701 456.035 752.181C460.182 745.008 465.555 738.661 470.688 732.208C473.315 728.568 477.755 726.768 480.102 722.875C483.662 717.608 489.715 714.635 492.875 709.061C495.955 703.901 500.035 699.261 504.928 695.768C511.355 692.661 514.835 686.141 519.848 681.355Z" fill="#6130AD" stroke="#6130AD" stroke-width="0.125"/>
<path d="M178.208 664.995C188.315 668.581 197.462 674.235 206.888 679.261C209.515 680.435 210.248 683.395 211.062 685.888C214.968 700.061 220.235 713.821 225.195 727.648C238.435 761.101 249.355 795.915 269.395 826.155C279.275 842.648 289.822 858.795 301.648 873.995C292.728 869.661 285.155 862.928 277.942 856.208C271.395 851.261 266.022 845.008 259.568 839.955C254.222 834.208 247.968 829.248 243.315 822.901C224.408 785.048 208.128 745.901 193.288 706.261C187.768 692.688 182.648 678.955 178.208 664.995Z" fill="#382D5B" stroke="#382D5B" stroke-width="0.125"/>
<path d="M616.582 678.688C625.822 674.048 635.302 669.795 645.022 666.261C645.222 668.248 645.102 670.301 644.195 672.141C630.355 706.261 615.942 740.168 600.048 773.381C595.328 784.848 588.942 795.528 584.222 806.995C579.808 813.635 577.075 821.181 573.342 828.155C559.555 842.995 543.022 854.848 527.195 867.355C523.888 869.515 521.088 873.288 516.768 873.128C518.155 868.275 522.795 865.688 525.755 861.915C536.222 848.581 545.835 834.581 554.502 820.008C578.195 779.701 592.742 735.035 610.768 692.101C612.555 687.568 614.102 682.901 616.582 678.688Z" fill="#382D5B" stroke="#382D5B" stroke-width="0.125"/>
<path d="M651.155 708.381C651.835 705.968 653.488 704.021 655.448 702.515C659.302 708.528 657.502 716.195 660.662 722.581C654.462 737.781 641.355 748.395 631.742 761.275C630.582 763.141 628.782 764.435 626.742 765.208C628.862 759.261 633.115 754.381 635.262 748.448C640.808 735.195 646.555 722.021 651.155 708.381Z" fill="#382D5B" stroke="#382D5B" stroke-width="0.125"/>
<path d="M345.182 725.141C348.435 726.821 349.422 730.555 351.315 733.421C365.808 757.555 381.555 780.981 399.488 802.701C401.035 804.675 403.715 806.488 403.088 809.368C389.422 801.475 377.622 790.781 365.688 780.515C353.088 768.048 341.822 754.275 331.568 739.821C332.048 738.648 332.528 737.475 333.008 736.315C336.582 737.048 340.875 738.821 344.142 736.275C347.808 733.675 344.982 728.755 345.182 725.141Z" fill="#6130AD" stroke="#6130AD" stroke-width="0.125"/>
</svg>
